<svg data-v-423bf9ae="" xmlns="http://www.w3.org/2000/svg" viewBox="0 0 370.60795303044165 60" class="font"><!----><!----><!----><g data-v-423bf9ae="" id="b27a8e0a-8e3e-4bc0-9faa-e6248da1e6e4" fill="white" transform="matrix(4.192871994451495,0,0,4.192871994451495,-3.7735773545889515,-2.935009690482019)"><path d="M1.64 1.41L7.66 1.41L7.66 0.70L0.90 0.70L0.90 10.50L7.83 10.50L7.83 9.77L1.64 9.77L1.64 5.91L7.38 5.91L7.38 5.22L1.64 5.22ZM9.37 3.58L9.37 10.50L10.05 10.50L10.05 6.65C10.05 5.22 11.05 4.14 12.47 4.13C13.97 4.12 14.94 4.96 14.94 6.52L14.94 10.50L15.62 10.50L15.62 6.51C15.62 4.59 14.35 3.46 12.50 3.46C11.54 3.47 10.57 3.86 10.04 4.82L10.04 3.58ZM22.30 4.09C21.77 3.71 21.04 3.46 20.34 3.46C18.55 3.46 17.09 4.68 17.09 6.83C17.09 8.68 18.34 10.18 20.34 10.18C21.63 10.18 22.96 10.77 22.96 12.25C22.96 13.72 21.73 14.34 20.34 14.34C18.96 14.34 17.75 13.66 17.75 12.25L17.07 12.25C17.07 14 18.51 15.01 20.34 15.01C22.18 15.01 23.63 14.11 23.63 12.25C23.63 11.06 22.96 10.21 21.74 9.77C22.89 9.25 23.60 8.04 23.60 6.83C23.60 5.71 23.24 5.01 22.75 4.48L23.42 3.70L22.97 3.30ZM20.34 4.14C21.77 4.14 22.93 5.08 22.93 6.83C22.93 8.26 21.77 9.49 20.34 9.49C18.76 9.49 17.78 8.26 17.78 6.83C17.78 5.03 18.93 4.14 20.34 4.14ZM25.70 3.56L25.70 10.50L25.02 10.50L25.02 3.56ZM24.82 1.33C24.82 2.06 25.93 2.06 25.93 1.33C25.93 0.60 24.82 0.60 24.82 1.33ZM27.66 3.58L27.66 10.50L28.35 10.50L28.35 6.65C28.35 5.22 29.34 4.14 30.77 4.13C32.27 4.12 33.24 4.96 33.24 6.52L33.24 10.50L33.92 10.50L33.92 6.51C33.92 4.59 32.65 3.46 30.80 3.46C29.83 3.47 28.87 3.86 28.34 4.82L28.34 3.58ZM38.84 10.60C39.94 10.60 41.15 10.15 41.82 9.27L41.33 8.88C40.81 9.56 39.75 9.93 38.84 9.93C37.41 9.93 36.16 8.99 36.02 7.36L42.25 7.36C42.52 4.66 40.78 3.47 38.84 3.47C36.89 3.47 35.32 4.97 35.32 7.04C35.32 9.24 36.89 10.60 38.84 10.60ZM36.02 6.76C36.18 5.07 37.41 4.10 38.84 4.10C40.50 4.10 41.62 5.05 41.64 6.76ZM47.15 10.60C48.26 10.60 49.46 10.15 50.13 9.27L49.64 8.88C49.13 9.56 48.06 9.93 47.15 9.93C45.72 9.93 44.48 8.99 44.34 7.36L50.57 7.36C50.83 4.66 49.10 3.47 47.15 3.47C45.21 3.47 43.64 4.97 43.64 7.04C43.64 9.24 45.21 10.60 47.15 10.60ZM44.34 6.76C44.49 5.07 45.72 4.10 47.15 4.10C48.82 4.10 49.94 5.05 49.95 6.76ZM52.35 3.58L52.35 10.50L53.03 10.50L53.03 6.47C53.03 5.21 54.03 4.17 55.31 4.16C55.72 4.16 56.13 4.26 56.49 4.48L56.80 3.92C56.34 3.64 55.83 3.50 55.31 3.51C54.43 3.51 53.45 3.88 53.02 4.82L52.99 3.58ZM58.52 3.56L58.52 10.50L57.83 10.50L57.83 3.56ZM57.64 1.33C57.64 2.06 58.74 2.06 58.74 1.33C58.74 0.60 57.64 0.60 57.64 1.33ZM60.48 3.58L60.48 10.50L61.17 10.50L61.17 6.65C61.17 5.22 62.16 4.14 63.59 4.13C65.09 4.12 66.05 4.96 66.05 6.52L66.05 10.50L66.74 10.50L66.74 6.51C66.74 4.59 65.46 3.46 63.62 3.46C62.65 3.47 61.68 3.86 61.15 4.82L61.15 3.58ZM73.42 4.09C72.88 3.71 72.16 3.46 71.46 3.46C69.66 3.46 68.21 4.68 68.21 6.83C68.21 8.68 69.45 10.18 71.46 10.18C72.74 10.18 74.07 10.77 74.07 12.25C74.07 13.72 72.84 14.34 71.46 14.34C70.07 14.34 68.87 13.66 68.87 12.25L68.18 12.25C68.18 14 69.62 15.01 71.46 15.01C73.29 15.01 74.75 14.11 74.75 12.25C74.75 11.06 74.07 10.21 72.86 9.77C74.00 9.25 74.72 8.04 74.72 6.83C74.72 5.71 74.35 5.01 73.86 4.48L74.54 3.70L74.09 3.30ZM71.46 4.14C72.88 4.14 74.05 5.08 74.05 6.83C74.05 8.26 72.88 9.49 71.46 9.49C69.87 9.49 68.89 8.26 68.89 6.83C68.89 5.03 70.04 4.14 71.46 4.14ZM80.86 10.50L80.86 0.70L80.12 0.70L80.12 10.50ZM83.02 0.70L83.02 10.50L89.29 10.50L89.29 9.79L83.78 9.79L83.78 0.70Z"></path></g><!----><!----></svg>